<?xml version="1.0" encoding="iso-8859-1"?>
<!-- Generator: Adobe Illustrator 18.0.0, SVG Export Plug-In . SVG Version: 6.00 Build 0)  -->
<!DOCTYPE svg PUBLIC "-//W3C//DTD SVG 1.1//EN" "http://www.w3.org/Graphics/SVG/1.1/DTD/svg11.dtd">
<svg version="1.1" id="_x31_" xmlns="http://www.w3.org/2000/svg" xmlns:xlink="http://www.w3.org/1999/xlink" x="0px" y="0px"
	 viewBox="0 0 512 512" style="enable-background:new 0 0 512 512;" xml:space="preserve">
<g>
	<rect style="fill:#A0D7DC;" width="512" height="512"/>
	<path style="opacity:0.1;fill:#040000;" d="M512,303.923V512H269.056L144.128,387.072l2.611-5.017l32.87-64.103v-0.051
		c-2.56-15.36-16.23-30.464-27.136-45.671c-0.922-1.28-1.792-2.56-2.611-3.84c-0.614-0.921-1.178-1.894-1.792-2.816
		c-10.496-17.613-15.002-38.81-11.469-62.31c0.358-2.15,0.716-4.301,1.178-6.451c1.587-7.68,4.096-15.718,7.577-23.859
		c2.714-6.554,6.041-13.158,10.035-19.917c1.587-2.662,3.226-5.274,4.966-7.987c2.662-4.045,5.581-8.141,8.704-12.288
		c41.882-54.938,104.653-48.947,134.656-35.328c1.075,0.512,2.202,1.024,3.328,1.587l48.896,48.896L512,303.923z"/>
	<path style="opacity:0.1;fill:#FFFFFF;" d="M333.423,118.319c-7.014-4.967-14.029-8.807-20.378-11.469
		c-32.256-13.619-99.789-19.558-144.896,35.379c-3.379,4.096-6.503,8.192-9.37,12.288c-1.894,2.663-3.635,5.274-5.325,7.936
		c-4.301,6.758-7.936,13.363-10.803,19.917c-1.536,3.328-2.918,6.656-4.045,9.984c1.485-6.298,3.687-12.8,6.503-19.405
		c2.662-6.554,6.042-13.158,10.035-19.917c1.536-2.663,3.226-5.273,4.966-7.987c2.662-4.045,5.53-8.141,8.704-12.288
		C210.696,77.82,273.468,83.81,303.471,97.43c6.093,2.765,12.954,6.81,19.763,12.083
		C326.665,112.124,330.095,115.042,333.423,118.319z"/>
	<g>
		<circle style="fill:#E88A3E;" cx="349.971" cy="353.895" r="28.497"/>
		<path style="opacity:0.1;fill:#FBDCC5;" d="M349.971,325.398c-15.739,0-28.497,12.758-28.497,28.496
			c0,7.869,3.189,14.993,8.346,20.15l40.3-40.3C364.964,328.588,357.84,325.398,349.971,325.398z"/>
	</g>
	<g>
		<g>
			<path style="fill:#B84955;" d="M367.16,222.054c-1.075,5.274-2.304,10.394-3.686,15.206c-0.768,2.816-1.587,5.529-2.457,8.141
				c-5.734,17.408-13.363,31.795-22.323,43.469v0.051c-0.717,0.87-1.383,1.741-2.048,2.56c-6.656,8.141-14.029,14.746-21.913,20.019
				c0,0,0,0.051-0.051,0.051c-1.638,1.126-3.277,2.202-4.966,3.123c-0.051,0-0.051,0-0.051,0
				c-8.806,5.069-18.125,8.499-27.699,10.393c-1.638,0.307-3.277,0.563-4.966,0.768l0.154-0.307l-18.944-8.602l-18.995-8.602
				l-87.859-39.936c-0.614-0.921-1.178-1.894-1.792-2.816c-10.496-17.613-15.002-38.81-11.469-62.31
				c0.358-2.15,0.716-4.301,1.178-6.451c1.587-7.68,4.096-15.718,7.577-23.859c2.714-6.554,6.041-13.158,10.035-19.917
				c1.587-2.662,3.226-5.274,4.966-7.987c2.662-4.045,5.581-8.141,8.704-12.288c41.882-54.938,104.653-48.947,134.656-35.328
				c1.075,0.512,2.202,1.024,3.328,1.587c5.223,2.662,10.803,6.144,16.435,10.445c8.089,6.246,16.23,14.183,23.296,23.757
				c3.379,4.557,6.502,9.421,9.165,14.694c5.888,11.11,10.138,23.808,11.674,38.042C370.283,197.069,369.772,209.152,367.16,222.054
				z"/>
			<path style="fill:#E5C294;" d="M277.151,325.53l-0.154,0.307c-1.28,0.205-2.56,0.358-3.891,0.512
				c-19.047,1.741-39.936,1.383-53.094,10.138c-0.051,0-0.103,0-0.103,0.051c-2.816,1.946-5.274,4.147-7.322,7.014
				c-18.074,39.834-29.696,57.498-37.12,64.666c-3.174-0.87-6.503-2.099-10.087-3.737v0.051l-0.153-0.051
				c-1.587-0.717-3.021-1.433-4.403-2.202c-0.41-0.205-0.768-0.461-1.178-0.666c-1.075-0.614-2.202-1.28-3.174-1.894
				c0.051-0.512,0.051-1.075,0.102-1.69c0.256-2.355,0.717-5.171,1.485-8.55c2.714-11.981,9.267-30.822,22.681-60.365
				c0.871-3.738,0.922-7.424,0.359-11.111v-0.102c-2.56-15.36-16.23-30.464-27.136-45.671c-0.921-1.28-1.792-2.56-2.611-3.84
				l87.859,39.936l18.995,8.602L277.151,325.53z"/>
			<g>
				<path style="fill:#F5DDA8;" d="M214.123,297.267l-30.106,66.253l-0.051,0.051l-18.586,40.909v0.051l-0.153-0.051
					c-1.587-0.717-3.021-1.433-4.403-2.202c-0.41-0.205-0.768-0.461-1.178-0.666c-1.075-0.614-2.202-1.28-3.174-1.894
					c-0.41-0.256-0.819-0.512-1.126-0.768c-1.434-0.922-2.714-1.894-3.943-2.816c-2.918-2.253-5.274-4.506-7.066-6.605l1.28-2.458
					l2.611-5.017l32.87-64.103v-0.051l0.666-1.28l14.131-27.597L214.123,297.267z"/>
				<path style="fill:#F5DDA8;" d="M190.514,410.507c-4.055,0.014-9.14-0.552-15.048-2.279c-3.149-0.867-6.518-2.117-10.061-3.726
					l48.695-107.22l18.228,8.278l-12.295,30.911L190.514,410.507z"/>
			</g>
			<g style="opacity:0.04;">
				
					<ellipse transform="matrix(0.9105 0.4135 -0.4135 0.9105 64.4781 -96.715)" style="fill:#040000;" cx="255.656" cy="100.59" rx="5.037" ry="4.871"/>
				
					<ellipse transform="matrix(0.9105 0.4135 -0.4135 0.9105 75.9245 -112.1059)" style="fill:#040000;" cx="296.933" cy="119.337" rx="5.037" ry="4.871"/>
				
					<ellipse transform="matrix(0.9105 0.4135 -0.4135 0.9105 87.3709 -127.4967)" style="fill:#040000;" cx="338.209" cy="138.083" rx="5.037" ry="4.871"/>
				
					<ellipse transform="matrix(0.9105 0.4135 -0.4135 0.9105 67.924 -81.6666)" style="fill:#040000;" cx="222.62" cy="116.078" rx="5.037" ry="4.871"/>
				
					<ellipse transform="matrix(0.9105 0.4135 -0.4135 0.9105 79.37 -97.0571)" style="fill:#040000;" cx="263.897" cy="134.824" rx="5.037" ry="4.871"/>
				
					<ellipse transform="matrix(0.9105 0.4135 -0.4135 0.9105 90.8161 -112.4476)" style="fill:#040000;" cx="305.174" cy="153.571" rx="5.037" ry="4.871"/>
				
					<ellipse transform="matrix(0.9105 0.4135 -0.4135 0.9105 102.261 -127.8373)" style="fill:#040000;" cx="346.45" cy="172.317" rx="5.037" ry="4.871"/>
				
					<ellipse transform="matrix(0.9105 0.4135 -0.4135 0.9105 72.0474 -67.182)" style="fill:#040000;" cx="191.218" cy="132.842" rx="5.037" ry="4.871"/>
				
					<ellipse transform="matrix(0.9105 0.4135 -0.4135 0.9105 83.4939 -82.5728)" style="fill:#040000;" cx="232.494" cy="151.589" rx="5.037" ry="4.871"/>
				
					<ellipse transform="matrix(0.9105 0.4135 -0.4135 0.9105 94.9391 -97.9629)" style="fill:#040000;" cx="273.771" cy="170.335" rx="5.037" ry="4.871"/>
				
					<ellipse transform="matrix(0.9105 0.4135 -0.4135 0.9105 106.3838 -113.3525)" style="fill:#040000;" cx="315.048" cy="189.081" rx="5.037" ry="4.871"/>
				
					<ellipse transform="matrix(0.9105 0.4135 -0.4135 0.9105 117.8299 -128.743)" style="fill:#040000;" cx="356.324" cy="207.828" rx="5.037" ry="4.871"/>
				
					<ellipse transform="matrix(0.9105 0.4135 -0.4135 0.9105 86.9393 -67.5247)" style="fill:#040000;" cx="199.459" cy="167.076" rx="5.037" ry="4.871"/>
				
					<ellipse transform="matrix(0.9105 0.4135 -0.4135 0.9105 98.3854 -82.9152)" style="fill:#040000;" cx="240.735" cy="185.823" rx="5.037" ry="4.871"/>
				
					<ellipse transform="matrix(0.9105 0.4135 -0.4135 0.9105 109.8315 -98.3058)" style="fill:#040000;" cx="282.012" cy="204.569" rx="5.037" ry="4.871"/>
				
					<ellipse transform="matrix(0.9105 0.4135 -0.4135 0.9105 121.2775 -113.6963)" style="fill:#040000;" cx="323.289" cy="223.315" rx="5.037" ry="4.871"/>
				
					<ellipse transform="matrix(0.9105 0.4135 -0.4135 0.9105 91.0632 -53.0397)" style="fill:#040000;" cx="168.056" cy="183.841" rx="5.037" ry="4.871"/>
				
					<ellipse transform="matrix(0.9105 0.4135 -0.4135 0.9105 102.5095 -68.4305)" style="fill:#040000;" cx="209.333" cy="202.587" rx="5.037" ry="4.871"/>
				
					<ellipse transform="matrix(0.9105 0.4135 -0.4135 0.9105 113.9559 -83.8213)" style="fill:#040000;" cx="250.609" cy="221.333" rx="5.037" ry="4.871"/>
				
					<ellipse transform="matrix(0.9105 0.4135 -0.4135 0.9105 125.3993 -99.2107)" style="fill:#040000;" cx="291.886" cy="240.08" rx="5.037" ry="4.871"/>
				
					<ellipse transform="matrix(0.9105 0.4135 -0.4135 0.9105 136.8453 -114.6011)" style="fill:#040000;" cx="333.163" cy="258.826" rx="5.037" ry="4.871"/>
				
					<ellipse transform="matrix(0.9105 0.4135 -0.4135 0.9105 105.9547 -53.3828)" style="fill:#040000;" cx="176.297" cy="218.075" rx="5.037" ry="4.871"/>
				
					<ellipse transform="matrix(0.9105 0.4135 -0.4135 0.9105 117.4008 -68.7733)" style="fill:#040000;" cx="217.574" cy="236.821" rx="5.037" ry="4.871"/>
				
					<ellipse transform="matrix(0.9105 0.4135 -0.4135 0.9105 128.8468 -84.1639)" style="fill:#040000;" cx="258.851" cy="255.567" rx="5.037" ry="4.871"/>
				
					<ellipse transform="matrix(0.9105 0.4135 -0.4135 0.9105 140.293 -99.5545)" style="fill:#040000;" cx="300.127" cy="274.314" rx="5.037" ry="4.871"/>
				<path style="fill:#040000;" d="M338.682,288.895c-0.684,0.871-1.368,1.743-2.065,2.581c0.059-0.159,0.122-0.33,0.197-0.495
					C337.224,290.079,337.877,289.366,338.682,288.895z"/>
				
					<ellipse transform="matrix(0.9105 0.4135 -0.4135 0.9105 110.0789 -38.8974)" style="fill:#040000;" cx="144.895" cy="234.839" rx="5.037" ry="4.871"/>
				
					<ellipse transform="matrix(0.9105 0.4135 -0.4135 0.9105 121.5253 -54.2883)" style="fill:#040000;" cx="186.171" cy="253.585" rx="5.037" ry="4.871"/>
				
					<ellipse transform="matrix(0.9105 0.4135 -0.4135 0.9105 132.9716 -69.679)" style="fill:#040000;" cx="227.448" cy="272.332" rx="5.037" ry="4.871"/>
				
					<ellipse transform="matrix(0.9105 0.4135 -0.4135 0.9105 144.4145 -85.0687)" style="fill:#040000;" cx="268.725" cy="291.078" rx="5.037" ry="4.871"/>
				
					<ellipse transform="matrix(0.9105 0.4135 -0.4135 0.9105 155.8606 -100.4593)" style="fill:#040000;" cx="310.001" cy="309.824" rx="5.037" ry="4.871"/>
			</g>
		</g>
		<path style="opacity:0.06;fill:#040000;" d="M368.05,179.492L151.411,396.131c1.214,0.947,2.497,1.895,3.913,2.837
			c0.352,0.216,0.729,0.5,1.127,0.737c1.008,0.627,2.11,1.296,3.187,1.897c1.734,1.012,3.556,1.952,5.607,2.884l0.14,0.063
			l0.021-0.047c3.543,1.609,6.912,2.858,10.061,3.726c5.908,1.727,10.992,2.293,15.048,2.279l29.519-74.036
			c13.146-8.763,34.01-8.396,53.078-10.14c1.301-0.14,2.602-0.281,3.877-0.488l0.148-0.326l-18.917-8.592l18.937,8.601l-0.148,0.326
			c1.662-0.201,3.297-0.471,4.952-0.788c9.582-1.89,18.922-5.296,27.682-10.371c0.016-0.009,0.031-0.021,0.048-0.03
			c2.038,0.175,4.029-0.844,4.898-2.757c0.054-0.12,0.039-0.248,0.083-0.369c0.005-0.003,0.009-0.006,0.014-0.009
			c0.048,0.022,0.069-0.025,0.069-0.025c7.856-5.261,15.219-11.87,21.891-20.03c0.664-0.823,1.35-1.693,2.036-2.562
			c8.966-11.674,16.614-26.082,22.319-43.51c0.902-2.626,1.729-5.344,2.481-8.151c1.379-4.829,2.58-9.907,3.7-15.19
			c2.614-12.927,3.083-24.973,1.905-36.08C368.85,183.755,368.417,181.643,368.05,179.492z"/>
	</g>
</g>
</svg>
